<?xml version="1.0" encoding="UTF-8"?>
<svg viewBox="0 0 920 360" xmlns="http://www.w3.org/2000/svg" font-family="Noto Sans SC, JetBrains Mono, sans-serif"><rect x="0" y="0" width="920" height="360" fill="#0f0f10"/>
          <defs><marker id="arr" markerWidth="8" markerHeight="8" refX="4" refY="4" orient="auto"><path d="M0,0 L8,4 L0,8 Z" fill="#8a8a92"/></marker></defs>

          <!-- card template: x positions 16,196,376,556,736 width 132 -->
          <!-- 1 CHIP -->
          <rect x="16" y="60" width="132" height="150" rx="13" fill="#16161a" stroke="#d6705f" stroke-width="0.8"/>
          <rect x="56" y="84" width="34" height="34" rx="5" fill="#1e1820" stroke="#d6705f" stroke-width="1"/>
          <rect x="94" y="86" width="6" height="30" rx="1.5" fill="#3a2420"/><rect x="103" y="86" width="6" height="30" rx="1.5" fill="#3a2420"/>
          <text x="82" y="140" fill="#d6705f" font-size="12" text-anchor="middle" font-weight="600">芯片 GPU</text>
          <text x="82" y="158" fill="#a3a3ad" font-size="9" text-anchor="middle">1 张卡 + 显存</text>
          <text x="82" y="174" fill="#6d6d77" font-size="8" text-anchor="middle" font-family="JetBrains Mono">H100 · 80GB</text>

          <!-- 2 NODE -->
          <rect x="196" y="60" width="132" height="150" rx="13" fill="#16161a" stroke="#f0a35e" stroke-width="0.8"/>
          <g fill="#1e1820" stroke="#d6705f" stroke-width="0.7">
            <rect x="214" y="80" width="18" height="16" rx="2"/><rect x="236" y="80" width="18" height="16" rx="2"/>
            <rect x="258" y="80" width="18" height="16" rx="2"/><rect x="280" y="80" width="18" height="16" rx="2"/>
            <rect x="214" y="100" width="18" height="16" rx="2"/><rect x="236" y="100" width="18" height="16" rx="2"/>
            <rect x="258" y="100" width="18" height="16" rx="2"/><rect x="280" y="100" width="18" height="16" rx="2"/>
          </g>
          <rect x="214" y="120" width="84" height="11" rx="3" fill="#241d14" stroke="#f0a35e" stroke-width="0.7"/>
          <text x="256" y="129" fill="#f0a35e" font-size="6.5" text-anchor="middle">NVSwitch</text>
          <text x="262" y="148" fill="#f0a35e" font-size="12" text-anchor="middle" font-weight="600">服务器</text>
          <text x="262" y="166" fill="#a3a3ad" font-size="9" text-anchor="middle">8 卡焊成一体</text>
          <text x="262" y="182" fill="#6d6d77" font-size="8" text-anchor="middle" font-family="JetBrains Mono">HGX · 1 node</text>

          <!-- 3 RACK -->
          <rect x="376" y="60" width="132" height="150" rx="13" fill="#16161a" stroke="#56c2cf" stroke-width="0.8"/>
          <rect x="418" y="78" width="48" height="60" rx="4" fill="#10191a" stroke="#56c2cf" stroke-width="0.8"/>
          <g stroke="#56c2cf" stroke-width="0.7" opacity="0.7">
            <line x1="422" y1="90" x2="462" y2="90"/><line x1="422" y1="100" x2="462" y2="100"/>
            <line x1="422" y1="110" x2="462" y2="110"/><line x1="422" y1="120" x2="462" y2="120"/>
            <line x1="422" y1="130" x2="462" y2="130"/>
          </g>
          <text x="442" y="155" fill="#56c2cf" font-size="12" text-anchor="middle" font-weight="600">机柜</text>
          <text x="442" y="173" fill="#a3a3ad" font-size="9" text-anchor="middle">几台服务器叠放</text>
          <text x="442" y="189" fill="#6d6d77" font-size="8" text-anchor="middle" font-family="JetBrains Mono">+供电/散热</text>

          <!-- 4 POD -->
          <rect x="556" y="60" width="132" height="150" rx="13" fill="#16161a" stroke="#56c2cf" stroke-width="0.8"/>
          <rect x="582" y="78" width="74" height="12" rx="3" fill="#10191a" stroke="#56c2cf" stroke-width="0.8"/>
          <text x="619" y="87" fill="#56c2cf" font-size="6.5" text-anchor="middle">Spine 交换机</text>
          <g fill="#10191a" stroke="#56c2cf" stroke-width="0.7">
            <rect x="586" y="100" width="20" height="34" rx="3"/><rect x="610" y="100" width="20" height="34" rx="3"/>
            <rect x="634" y="100" width="20" height="34" rx="3"/>
          </g>
          <g stroke="#56c2cf" stroke-width="0.6" opacity="0.6">
            <line x1="596" y1="100" x2="619" y2="90"/><line x1="620" y1="100" x2="619" y2="90"/><line x1="644" y1="100" x2="619" y2="90"/>
          </g>
          <text x="622" y="155" fill="#56c2cf" font-size="12" text-anchor="middle" font-weight="600">POD</text>
          <text x="622" y="173" fill="#a3a3ad" font-size="9" text-anchor="middle">几十柜组网</text>
          <text x="622" y="189" fill="#6d6d77" font-size="8" text-anchor="middle" font-family="JetBrains Mono">无收敛胖树</text>

          <!-- 5 CLUSTER -->
          <rect x="736" y="60" width="132" height="150" rx="13" fill="#16161a" stroke="#7d8aa8" stroke-width="0.8"/>
          <g fill="#12151b" stroke="#7d8aa8" stroke-width="0.6">
            <rect x="760" y="80" width="13" height="22" rx="2"/><rect x="777" y="80" width="13" height="22" rx="2"/>
            <rect x="794" y="80" width="13" height="22" rx="2"/><rect x="811" y="80" width="13" height="22" rx="2"/>
            <rect x="828" y="80" width="13" height="22" rx="2"/>
            <rect x="760" y="106" width="13" height="22" rx="2"/><rect x="777" y="106" width="13" height="22" rx="2"/>
            <rect x="794" y="106" width="13" height="22" rx="2"/><rect x="811" y="106" width="13" height="22" rx="2"/>
            <rect x="828" y="106" width="13" height="22" rx="2"/>
          </g>
          <text x="800" y="155" fill="#aab4c8" font-size="12" text-anchor="middle" font-weight="600">集群</text>
          <text x="800" y="173" fill="#a3a3ad" font-size="9" text-anchor="middle">多 POD 汇聚</text>
          <text x="800" y="189" fill="#6d6d77" font-size="8" text-anchor="middle" font-family="JetBrains Mono">万卡级</text>

          <!-- arrows + multipliers -->
          <g>
            <line x1="148" y1="135" x2="196" y2="135" stroke="#8a8a92" stroke-width="1.4" marker-end="url(#arr)"/>
            <text x="172" y="118" fill="#f0a35e" font-size="13" text-anchor="middle" font-weight="700">×8</text>
            <text x="172" y="158" fill="#6d6d77" font-size="7.5" text-anchor="middle">NVSwitch</text>

            <line x1="328" y1="135" x2="376" y2="135" stroke="#8a8a92" stroke-width="1.4" marker-end="url(#arr)"/>
            <text x="352" y="118" fill="#56c2cf" font-size="12" text-anchor="middle" font-weight="700">×几</text>
            <text x="352" y="158" fill="#6d6d77" font-size="7.5" text-anchor="middle">网线</text>

            <line x1="508" y1="135" x2="556" y2="135" stroke="#8a8a92" stroke-width="1.4" marker-end="url(#arr)"/>
            <text x="532" y="118" fill="#56c2cf" font-size="12" text-anchor="middle" font-weight="700">×几十</text>
            <text x="532" y="158" fill="#6d6d77" font-size="7.5" text-anchor="middle">网线</text>

            <line x1="688" y1="135" x2="736" y2="135" stroke="#8a8a92" stroke-width="1.4" marker-end="url(#arr)"/>
            <text x="712" y="118" fill="#7d8aa8" font-size="12" text-anchor="middle" font-weight="700">×N</text>
            <text x="712" y="158" fill="#6d6d77" font-size="7.5" text-anchor="middle">汇聚</text>
          </g>

          <!-- brackets -->
          <path d="M16 230 L16 244 L328 244 L328 230" fill="none" stroke="#f0a35e" stroke-width="1"/>
          <text x="172" y="262" fill="#f0a35e" font-size="11" text-anchor="middle" font-weight="600">焊在一起 · 高速区(NVLink)</text>
          <text x="172" y="278" fill="#9a8a78" font-size="8.5" text-anchor="middle">= 同心圆第 1 圈 · 900GB/s</text>

          <path d="M376 230 L376 244 L868 244 L868 230" fill="none" stroke="#56c2cf" stroke-width="1"/>
          <text x="622" y="262" fill="#56c2cf" font-size="11" text-anchor="middle" font-weight="600">用网线连 · 网络区(InfiniBand)</text>
          <text x="622" y="278" fill="#5a8e94" font-size="8.5" text-anchor="middle">= 同心圆第 2/3 圈 · 400Gb/s</text>

          <!-- NVL72 note -->
          <text x="442" y="316" fill="#a3a3ad" font-size="9.5" text-anchor="middle" font-family="Noto Sans SC">
            进阶:GB200 NVL72 把"焊在一起"的范围 <tspan fill="#f0a35e" font-weight="600">从 8 卡撑大到整柜 72 卡</tspan>,让更大的模型也能享受最快的线
          </text>
        </svg>